<mxfile host="app.diagrams.net" modified="2023-08-28T06:48:04.522Z" agent="Mozilla/5.0 (Windows NT 10.0; Win64; x64) AppleWebKit/537.36 (KHTML, like Gecko) Chrome/116.0.0.0 Safari/537.36" etag="-j6gsVrmUYPH8bL5WtE1" version="21.6.9" type="device">
  <diagram name="Sivu-1" id="Mqq9JCyHEjIGJzANdjWn">
    <mxGraphModel dx="680" dy="390" grid="1" gridSize="10" guides="1" tooltips="1" connect="1" arrows="1" fold="1" page="1" pageScale="1" pageWidth="827" pageHeight="1169" math="0" shadow="0">
      <root>
        <mxCell id="0" />
        <mxCell id="1" parent="0" />
        <mxCell id="zw__ZQO_Ojjy974moBZC-1" value="&lt;h4&gt;Äänestys appi&lt;/h4&gt;" style="whiteSpace=wrap;html=1;aspect=fixed;horizontal=1;verticalAlign=top;" parent="1" vertex="1">
          <mxGeometry x="229" y="140" width="370" height="370" as="geometry" />
        </mxCell>
        <mxCell id="xdyq5nJcAcStdDDi5d1--9" style="edgeStyle=orthogonalEdgeStyle;rounded=0;orthogonalLoop=1;jettySize=auto;html=1;exitX=1;exitY=0.3333333333333333;exitDx=0;exitDy=0;exitPerimeter=0;" edge="1" parent="1" source="xdyq5nJcAcStdDDi5d1--1" target="xdyq5nJcAcStdDDi5d1--5">
          <mxGeometry relative="1" as="geometry" />
        </mxCell>
        <mxCell id="xdyq5nJcAcStdDDi5d1--1" value="Äänestäjä" style="shape=umlActor;verticalLabelPosition=bottom;verticalAlign=top;html=1;outlineConnect=0;" vertex="1" parent="1">
          <mxGeometry x="120" y="190" width="30" height="60" as="geometry" />
        </mxCell>
        <mxCell id="xdyq5nJcAcStdDDi5d1--10" style="edgeStyle=orthogonalEdgeStyle;rounded=0;orthogonalLoop=1;jettySize=auto;html=1;exitX=0;exitY=0.3333333333333333;exitDx=0;exitDy=0;exitPerimeter=0;entryX=1;entryY=0.5;entryDx=0;entryDy=0;" edge="1" parent="1" source="xdyq5nJcAcStdDDi5d1--2" target="xdyq5nJcAcStdDDi5d1--7">
          <mxGeometry relative="1" as="geometry" />
        </mxCell>
        <mxCell id="xdyq5nJcAcStdDDi5d1--2" value="admin" style="shape=umlActor;verticalLabelPosition=bottom;verticalAlign=top;html=1;outlineConnect=0;" vertex="1" parent="1">
          <mxGeometry x="680" y="200" width="30" height="60" as="geometry" />
        </mxCell>
        <mxCell id="xdyq5nJcAcStdDDi5d1--17" style="edgeStyle=orthogonalEdgeStyle;rounded=0;orthogonalLoop=1;jettySize=auto;html=1;exitX=1;exitY=0.5;exitDx=0;exitDy=0;entryX=0;entryY=0;entryDx=0;entryDy=0;" edge="1" parent="1" source="xdyq5nJcAcStdDDi5d1--5" target="xdyq5nJcAcStdDDi5d1--15">
          <mxGeometry relative="1" as="geometry" />
        </mxCell>
        <mxCell id="xdyq5nJcAcStdDDi5d1--5" value="Tili" style="ellipse;whiteSpace=wrap;html=1;" vertex="1" parent="1">
          <mxGeometry x="270" y="180" width="80" height="50" as="geometry" />
        </mxCell>
        <mxCell id="xdyq5nJcAcStdDDi5d1--13" style="edgeStyle=orthogonalEdgeStyle;rounded=0;orthogonalLoop=1;jettySize=auto;html=1;exitX=0;exitY=1;exitDx=0;exitDy=0;entryX=0.5;entryY=0;entryDx=0;entryDy=0;" edge="1" parent="1" source="xdyq5nJcAcStdDDi5d1--7" target="xdyq5nJcAcStdDDi5d1--12">
          <mxGeometry relative="1" as="geometry" />
        </mxCell>
        <mxCell id="xdyq5nJcAcStdDDi5d1--21" style="edgeStyle=orthogonalEdgeStyle;rounded=0;orthogonalLoop=1;jettySize=auto;html=1;exitX=0;exitY=0.5;exitDx=0;exitDy=0;entryX=0.974;entryY=0.374;entryDx=0;entryDy=0;entryPerimeter=0;dashed=1;dashPattern=8 8;" edge="1" parent="1" source="xdyq5nJcAcStdDDi5d1--7" target="xdyq5nJcAcStdDDi5d1--5">
          <mxGeometry relative="1" as="geometry" />
        </mxCell>
        <mxCell id="xdyq5nJcAcStdDDi5d1--7" value="Admin tili" style="ellipse;whiteSpace=wrap;html=1;" vertex="1" parent="1">
          <mxGeometry x="480" y="180" width="80" height="50" as="geometry" />
        </mxCell>
        <mxCell id="xdyq5nJcAcStdDDi5d1--20" style="edgeStyle=orthogonalEdgeStyle;rounded=0;orthogonalLoop=1;jettySize=auto;html=1;exitX=0;exitY=0;exitDx=0;exitDy=0;entryX=1;entryY=0.5;entryDx=0;entryDy=0;" edge="1" parent="1" source="xdyq5nJcAcStdDDi5d1--12" target="xdyq5nJcAcStdDDi5d1--15">
          <mxGeometry relative="1" as="geometry" />
        </mxCell>
        <mxCell id="xdyq5nJcAcStdDDi5d1--12" value="Hallitsee äänestylset" style="ellipse;whiteSpace=wrap;html=1;" vertex="1" parent="1">
          <mxGeometry x="440" y="260" width="80" height="50" as="geometry" />
        </mxCell>
        <mxCell id="xdyq5nJcAcStdDDi5d1--14" value="Äänestää" style="ellipse;whiteSpace=wrap;html=1;" vertex="1" parent="1">
          <mxGeometry x="320" y="290" width="80" height="50" as="geometry" />
        </mxCell>
        <mxCell id="xdyq5nJcAcStdDDi5d1--18" style="edgeStyle=orthogonalEdgeStyle;rounded=0;orthogonalLoop=1;jettySize=auto;html=1;exitX=0;exitY=1;exitDx=0;exitDy=0;entryX=0.5;entryY=0;entryDx=0;entryDy=0;" edge="1" parent="1" source="xdyq5nJcAcStdDDi5d1--15" target="xdyq5nJcAcStdDDi5d1--14">
          <mxGeometry relative="1" as="geometry" />
        </mxCell>
        <mxCell id="xdyq5nJcAcStdDDi5d1--19" style="edgeStyle=orthogonalEdgeStyle;rounded=0;orthogonalLoop=1;jettySize=auto;html=1;exitX=0.5;exitY=1;exitDx=0;exitDy=0;entryX=1;entryY=0;entryDx=0;entryDy=0;" edge="1" parent="1" source="xdyq5nJcAcStdDDi5d1--15" target="xdyq5nJcAcStdDDi5d1--14">
          <mxGeometry relative="1" as="geometry" />
        </mxCell>
        <mxCell id="xdyq5nJcAcStdDDi5d1--15" value="Selaa äänestyksiä" style="ellipse;whiteSpace=wrap;html=1;" vertex="1" parent="1">
          <mxGeometry x="360" y="220" width="80" height="50" as="geometry" />
        </mxCell>
      </root>
    </mxGraphModel>
  </diagram>
</mxfile>
